:SAMPLES-PER-SECOND 30
:FULLY-SPECIFIED
:DEGREES
621
root  5.52007 35.5928 32.8214 -176.781 -10.5281 173.716
RightUpLeg  -17.3083 -7.44756 -31.8775
RightLeg  32.3617 -6.76303 -4.86473
RightFoot  -2.89005 -2.86412 36.8235
RightToes  -1.74624e-010 0 -3.6325e-017
Spine  18.8175 -0.880688 5.10523
Spine1  6.48565 2.61355 -11.4461
HEad  -15.149 -10.4962 6.3468
LeftShoulder1  0.60161 0.829706 -15.672
LeftArm  2.15137 6.80387 -46.5961
LeftForeArm  138.376 -68.0643 -151.967
LeftHand  -2.40993 -3.45143 31.2034
RightShoulder  0.176859 -1.11179 -1.3204
RightArm  -33.2929 5.7963 22.1449
RightForeArm  -16.6928 42.4628 11.2722
RightHand  -3.34771 6.39882 -32.4
LeftUpLeg  -19.9632 -3.69839 18.5984
LeftLeg  35.9124 2.42775 2.2199
LeftFoot  -8.03623 0.811729 -26.1318
LeftToes  -5.82109e-011 1.10366e-010 -8.03124e-011
622
root  6.36281 34.886 33.1548 -177.86 -9.24121 173.389
RightUpLeg  -21.4716 -6.25603 -31.4266
RightLeg  39.8443 -4.97535 -4.75546
RightFoot  -6.84779 -1.51268 36.1781
RightToes  -1.74624e-010 0 -3.6325e-017
Spine  21.7762 -1.62016 7.69246
Spine1  6.85665 2.85474 -12.5833
HEad  -17.2519 -8.91797 3.88107
LeftShoulder1  0.813056 -0.0320542 -16.2332
LeftArm  0.408641 14.3723 -47.5764
LeftForeArm  138.529 -68.68 -151.079
LeftHand  -2.40366 -3.47898 31.0342
RightShoulder  0.0266669 -2.55153 -6.84316
RightArm  -39.1079 14.2564 17.1827
RightForeArm  -9.04877 50.0086 14.168
RightHand  -2.80763 5.69124 -29.0358
LeftUpLeg  -21.254 -4.15525 17.8972
LeftLeg  42.2714 0.862283 1.29743
LeftFoot  -12.4201 -0.175062 -26.4761
LeftToes  -5.82109e-011 1.10366e-010 -8.03124e-011
623
root  6.94961 34.4401 33.3518 -177.598 -8.94778 173.447
RightUpLeg  -24.7701 -5.40567 -30.7147
RightLeg  44.5545 -5.11026 -5.66247
RightFoot  -8.21327 -1.08071 36.3407
RightToes  -1.74624e-010 0 -3.6325e-017
Spine  22.0444 -2.2421 10.2864
Spine1  8.86044 3.02066 -12.5928
HEad  -19.4015 -7.90027 2.12497
LeftShoulder1  1.00035 -0.763116 -16.7323
LeftArm  0.870031 19.0982 -50.8568
LeftForeArm  134.31 -71.2835 -146.261
LeftHand  -2.37914 -3.5464 30.5158
RightShoulder  0.00416521 -4.20326 -10.2412
RightArm  -46.2177 19.7418 12.5243
RightForeArm  0.465122 58.086 18.3405
RightHand  -2.17225 4.83297 -24.6131
LeftUpLeg  -23.5491 -4.87555 17.2275
LeftLeg  47.3005 3.12829 4.09622
LeftFoot  -13.8973 -0.484214 -24.9155
LeftToes  -5.82109e-011 1.10366e-010 -8.03124e-011
624
root  7.35643 34.3174 33.4275 -176.768 -9.37502 173.492
RightUpLeg  -26.3122 -5.40823 -30.1674
RightLeg  46.1132 -4.89517 -5.74193
RightFoot  -8.9309 -0.875939 37.3482
RightToes  -1.74624e-010 0 -3.6325e-017
Spine  21.2839 -2.46212 11.4503
Spine1  10.5629 2.80454 -11.3211
HEad  -20.1761 -7.29816 1.41915
LeftShoulder1  1.14799 -1.3383 -17.0231
LeftArm  3.91381 21.4946 -53.6151
LeftForeArm  130.176 -73.8043 -140.173
LeftHand  -2.39202 -3.93434 29.4694
RightShoulder  0.0199539 -5.37142 -10.7966
RightArm  -50.9548 23.6236 10.6368
RightForeArm  6.7376 61.8547 21.0128
RightHand  -1.93787 4.72986 -22.2668
LeftUpLeg  -25.566 -5.03963 16.3382
LeftLeg  50.2439 6.72208 9.01035
LeftFoot  -13.0923 -0.257799 -21.5074
LeftToes  -5.82109e-011 1.10366e-010 -8.03124e-011
625
root  7.63267 34.4564 33.4946 -176.443 -9.68704 173.348
RightUpLeg  -26.4426 -5.81119 -29.822
RightLeg  45.7945 -4.55008 -5.30724
RightFoot  -8.96375 -0.860791 37.2238
RightToes  -1.74624e-010 0 -3.6325e-017
Spine  21.2719 -2.24414 10.5595
Spine1  11.2429 2.26883 -9.06091
HEad  -20.0948 -6.92269 1.16504
LeftShoulder1  1.26164 -1.81346 -17.047
LeftArm  8.43579 22.6029 -54.2014
LeftForeArm  131.198 -74.8754 -137.409
LeftHand  -2.39066 -4.59001 27.6134
RightShoulder  -0.00300427 -5.31478 -9.19246
RightArm  -51.0401 25.6714 12.3985
RightForeArm  7.41695 61.4716 20.6298
RightHand  -2.12585 5.27566 -23.1142
LeftUpLeg  -26.1288 -4.51179 15.2877
LeftLeg  51.0058 8.06324 10.9782
LeftFoot  -12.2875 -0.0717063 -17.7645
LeftToes  -5.82109e-011 1.10366e-010 -8.03124e-011
626
root  7.75222 34.8121 33.5674 -176.375 -9.8526 173.265
RightUpLeg  -25.7016 -6.40248 -29.4646
RightLeg  43.999 -4.83432 -5.27839
RightFoot  -7.65825 -1.26073 36.3593
RightToes  -1.74624e-010 0 -3.6325e-017
Spine  21.3118 -1.92938 8.81803
Spine1  11.8047 1.62519 -6.7965
HEad  -20.4064 -6.76146 0.82269
LeftShoulder1  1.29925 -2.02357 -16.8055
LeftArm  12.6386 22.2287 -53.3714
LeftForeArm  134.338 -74.8562 -138.06
LeftHand  -2.22793 -4.90966 25.0297
RightShoulder  -0.0105713 -4.02378 -6.35043
RightArm  -47.155 24.4493 16.691
RightForeArm  6.18243 60.8881 20.1897
RightHand  -2.36593 5.67918 -24.7439
LeftUpLeg  -25.6941 -3.49195 14.4569
LeftLeg  49.5834 6.25175 8.28467
LeftFoot  -12.5033 -0.0899242 -16.0902
LeftToes  -5.82109e-011 1.10366e-010 -8.03124e-011
627
root  7.66357 35.3661 33.5856 -175.817 -10.504 173.385
RightUpLeg  -24.0398 -7.21854 -29.058
RightLeg  40.2143 -6.00757 -5.68191
RightFoot  -5.21727 -2.01801 35.8754
RightToes  -1.74624e-010 0 -3.6325e-017
Spine  20.0619 -1.87969 7.35673
Spine1  12.9322 0.77706 -4.93034
HEad  -21.1906 -6.63232 0.418673
LeftShoulder1  1.24935 -1.89953 -16.3864
LeftArm  15.5802 20.0007 -52.746
LeftForeArm  132.133 -74.8173 -137.746
LeftHand  -1.8582 -4.23455 22.43
RightShoulder  0.0751059 -2.33703 -2.49091
RightArm  -41.1226 20.2776 22.0699
RightForeArm  6.78561 63.2562 22.6147
RightHand  -2.43479 5.74327 -25.2907
LeftUpLeg  -25.2496 -2.32533 13.758
LeftLeg  46.3615 2.70109 3.49346
LeftFoot  -12.937 -0.160172 -16.9311
LeftToes  -5.82109e-011 1.10366e-010 -8.03124e-011
628
root  7.34939 36.054 33.5426 -174.911 -11.6703 173.458
RightUpLeg  -21.387 -7.97876 -28.9146
RightLeg  34.7082 -8.12035 -6.23979
RightFoot  -1.85018 -3.0213 35.1883
RightToes  -1.74624e-010 0 -3.6325e-017
Spine  17.9394 -2.05215 5.9181
Spine1  14.2064 -0.387935 -2.96043
HEad  -21.6436 -6.22735 0.0350573
LeftShoulder1  1.16339 -1.61789 -15.9428
LeftArm  17.5674 16.5942 -53.1088
LeftForeArm  124.751 -75.4012 -134.444
LeftHand  -1.42811 -2.82743 20.2532
RightShoulder  0.251566 -1.08589 2.31281
RightArm  -34.3198 14.9735 27.6541
RightForeArm  8.84705 67.542 28.2496
RightHand  -2.32101 5.51026 -24.642
LeftUpLeg  -24.6093 -1.39532 12.5377
LeftLeg  41.9508 -0.734709 -0.30648
LeftFoot  -12.732 -0.149802 -18.5151
LeftToes  -5.82109e-011 1.10366e-010 -8.03124e-011
629
root  6.8292 36.7632 33.4832 -174.235 -12.543 173.333
RightUpLeg  -18.3533 -8.33818 -29.2227
RightLeg  28.6061 -10.8532 -6.56941
RightFoot  2.70874 -4.25179 33.7281
RightToes  -1.74624e-010 0 -3.6325e-017
Spine  16.1057 -2.18614 4.11831
Spine1  14.9826 -1.60724 -0.786132
HEad  -21.4077 -5.50119 -0.555719
LeftShoulder1  1.07507 -1.2971 -15.5895
LeftArm  19.2058 13.1068 -54.2775
LeftForeArm  116.343 -76.5961 -128.051
LeftHand  -1.1225 -1.62753 18.6716
RightShoulder  0.454825 -0.433222 7.32303
RightArm  -27.4482 9.48612 33.102
RightForeArm  11.6569 71.5602 36.6451
RightHand  -2.03799 4.87202 -23.0322
LeftUpLeg  -23.1112 -0.979894 10.6022
LeftLeg  37.2288 -2.32334 -1.54631
LeftFoot  -11.8919 -0.021258 -18.7377
LeftToes  -5.82109e-011 1.10366e-010 -8.03124e-011
630
root  6.14942 37.3829 33.4291 -173.835 -12.4264 173.303
RightUpLeg  -15.7577 -8.16622 -29.7063
RightLeg  22.5276 -13.7175 -6.31645
RightFoot  8.37101 -5.6569 32.1
RightToes  -1.74624e-010 0 -3.6325e-017
Spine  14.684 -2.1865 2.33451
Spine1  15.1444 -2.49856 1.01789
HEad  -20.8116 -4.63109 -1.45472
LeftShoulder1  0.974927 -0.888374 -15.3727
LeftArm  20.7613 10.1661 -55.7478
LeftForeArm  107.721 -77.9174 -119.002
LeftHand  -0.99876 -1.0828 18.0005
RightShoulder  0.661127 0.0495475 11.53
RightArm  -20.9009 3.50546 38.1415
RightForeArm  18.0037 74.8668 48.4974
RightHand  -1.67468 3.91197 -20.9449
LeftUpLeg  -21.0483 -0.622541 8.57686
LeftLeg  33.1241 -1.30875 -0.572169
LeftFoot  -11.0027 0.116333 -17.219
LeftToes  -5.82109e-011 1.10366e-010 -8.03124e-011
631
root  5.39392 37.8141 33.3896 -173.638 -11.253 173.635
RightUpLeg  -13.8394 -8.35279 -29.6696
RightLeg  16.477 -15.5981 -5.77542
RightFoot  14.0069 -6.72587 29.7753
RightToes  -1.74624e-010 0 -3.6325e-017
Spine  13.2911 -2.05026 0.736586
Spine1  15.1425 -2.98114 2.26116
HEad  -20.397 -3.5998 -2.23283
LeftShoulder1  0.8761 -0.45594 -15.2913
LeftArm  22.1212 7.94949 -56.9091
LeftForeArm  100.274 -78.6834 -111.083
LeftHand  -0.95309 -0.77976 18.002
RightShoulder  0.905789 0.72765 14.6255
RightArm  -14.8918 -2.80489 42.3464
RightForeArm  31.2909 77.3528 65.9974
RightHand  -1.32181 2.83478 -18.7358
LeftUpLeg  -19.2185 0.899608 7.09861
LeftLeg  30.4353 0.530184 0.700272
LeftFoot  -10.6327 0.15953 -15.3373
LeftToes  -5.82109e-011 1.10366e-010 -8.03124e-011
632
root  4.66056 38.0077 33.4057 -174.073 -9.34523 174.144
RightUpLeg  -12.4437 -11.3836 -28.4187
RightLeg  11.1531 -13.5084 -5.68126
RightFoot  17.435 -6.47338 25.3204
RightToes  -1.74624e-010 0 -3.6325e-017
Spine  12.1672 -1.73681 -1.11318
Spine1  15.683 -3.20516 3.25325
HEad  -20.6535 -2.26343 -2.30876
LeftShoulder1  0.843615 -0.310093 -15.2823
LeftArm  22.886 6.23003 -57.1829
LeftForeArm  98.4108 -78.8032 -109.266
LeftHand  -0.867898 -0.370457 17.5354
RightShoulder  1.15244 1.41756 16.8414
RightArm  -9.9095 -8.31947 45.9606
RightForeArm  49.0159 78.284 87.7232
RightHand  -0.975707 1.58254 -16.3181
LeftUpLeg  -17.6904 3.91997 6.20017
LeftLeg  29.5141 0.823462 0.858263
LeftFoot  -11.0625 0.10084 -14.2565
LeftToes  -5.82109e-011 1.10366e-010 -8.03124e-011
633
root  4.0001 38.0176 33.5019 -175.436 -7.16217 174.512
RightUpLeg  -11.3613 -12.8277 -27.5502
RightLeg  8.93365 -11.5489 -5.5415
RightFoot  16.5715 -4.95683 20.1657
RightToes  -1.74624e-010 0 -3.6325e-017
Spine  11.654 -1.30106 -3.20611
Spine1  17.0889 -3.27622 3.96534
HEad  -21.6356 -0.699483 -1.66543
LeftShoulder1  0.91891 -0.662423 -15.2183
LeftArm  22.837 4.4773 -56.515
LeftForeArm  100.68 -78.7037 -111.034
LeftHand  -0.775694 -0.0855348 16.5139
RightShoulder  1.28512 1.70838 18.1859
RightArm  -6.29253 -12.0448 49.9144
RightForeArm  63.1363 77.6667 106.319
RightHand  -0.667031 0.16202 -14.0037
LeftUpLeg  -15.9427 6.8084 5.56974
LeftLeg  29.8625 0.240393 0.505705
LeftFoot  -12.2252 -0.0319203 -13.6134
LeftToes  -5.82109e-011 1.10366e-010 -8.03124e-011
634
root  3.43119 37.9734 33.6335 -177.114 -5.07411 174.762
RightUpLeg  -10.7658 -11.6887 -27.1911
RightLeg  10.5984 -11.8429 -5.09694
RightFoot  11.9234 -3.66361 18.1379
RightToes  -1.74624e-010 0 -3.6325e-017
Spine  11.4032 -0.938374 -4.91657
Spine1  18.7598 -3.21725 4.06494
HEad  -22.6635 0.844748 -0.853978
LeftShoulder1  1.05185 -1.31389 -14.9803
LeftArm  22.3723 2.66933 -55.4815
LeftForeArm  100.719 -78.823 -110.03
LeftHand  -0.801421 -0.215425 16.643
RightShoulder  1.27897 1.59569 18.6373
RightArm  -3.2732 -13.6773 54.0168
RightForeArm  71.0437 76.4824 118.064
RightHand  -0.475868 -0.972189 -12.4843
LeftUpLeg  -13.9202 7.93366 4.99249
LeftLeg  30.2502 1.03623 1.01205
LeftFoot  -13.8148 -0.193597 -12.7654
LeftToes  -5.82109e-011 1.10366e-010 -8.03124e-011
